/* XPM */
static char *dfc8deebe3d942dee213597ee3f42b0fzATBTdH5ZkPorP2Q[] = {
/* columns rows colors chars-per-pixel */
"64 64 162 2 ",
"   c None",
".  c black",
"X  c #050B02",
"o  c #1E090E",
"O  c #0B1807",
"+  c #0A180A",
"@  c #091504",
"#  c #0E200B",
"$  c #133007",
"%  c #153608",
"&  c #193D0B",
"*  c #173B0E",
"=  c #132D13",
"-  c #153016",
";  c #183719",
":  c #1A3C1C",
">  c #1A3A13",
",  c #21210E",
"<  c #7F113B",
"1  c #48372C",
"2  c #463E2B",
"3  c #7F373C",
"4  c #753E39",
"5  c #19430A",
"6  c #1D4B0B",
"7  c #1F4C15",
"8  c #21490D",
"9  c #20540C",
"0  c #2B540D",
"q  c #23580F",
"w  c #214413",
"e  c #354C17",
"r  c #304415",
"t  c #235411",
"y  c #255D13",
"u  c #2A5E15",
"i  c #275D1A",
"p  c #2C5E1C",
"a  c #275418",
"s  c #36501A",
"d  c #36581B",
"f  c #33660E",
"g  c #276216",
"h  c #2C6217",
"j  c #23661A",
"k  c #2D641A",
"l  c #2D6C1F",
"z  c #31661B",
"x  c #33691E",
"c  c #2D701F",
"v  c #307519",
"b  c #204B22",
"n  c #245426",
"m  c #285C2A",
"M  c #3E5A22",
"N  c #246020",
"B  c #2D6C21",
"V  c #2C662F",
"C  c #3F6623",
"Z  c #326C21",
"A  c #316E2F",
"S  c #356827",
"D  c #2F7121",
"F  c #317424",
"G  c #317F20",
"H  c #36742B",
"J  c #3A7D2C",
"K  c #357E2B",
"L  c #317234",
"P  c #367A35",
"I  c #377F3A",
"U  c #55551E",
"Y  c #41631D",
"T  c #55691E",
"R  c #474521",
"E  c #4C4C27",
"W  c #554A25",
"Q  c #58402A",
"!  c #5E4327",
"~  c #4B5528",
"^  c #4E5326",
"/  c #54542A",
"(  c #58562D",
")  c #525530",
"_  c #565D30",
"`  c #5D5330",
"'  c #67412B",
"]  c #654C33",
"[  c #645534",
"{  c #406020",
"}  c #43682C",
"|  c #4A642D",
" . c #54612D",
".. c #516A34",
"X. c #457233",
"o. c #67732B",
"O. c #756831",
"+. c #725540",
"@. c #557153",
"#. c #83193F",
"$. c #88273F",
"%. c #8A2F3F",
"&. c #B61C53",
"*. c #BD1D59",
"=. c #8D2E40",
"-. c #922D44",
";. c #9E264C",
":. c #873341",
">. c #8F3947",
",. c #953640",
"<. c #913B4A",
"1. c #983E4A",
"2. c #993343",
"3. c #902E55",
"4. c #B12353",
"5. c #BE295C",
"6. c #C2185B",
"7. c #D02558",
"8. c #E91E63",
"9. c #824040",
"0. c #974652",
"q. c #9A4E56",
"w. c #A04048",
"e. c #A84158",
"r. c #BC435F",
"t. c #A05253",
"y. c #C04053",
"u. c #C0405F",
"i. c #20800D",
"p. c #2F8021",
"a. c #3C822F",
"s. c #3C8534",
"d. c #3D8A35",
"f. c #39843B",
"g. c #3C8A3D",
"h. c #3F903A",
"j. c #408028",
"k. c #498239",
"l. c #53813D",
"z. c #538331",
"x. c #42933B",
"c. c #3D8D41",
"v. c #408040",
"b. c #538846",
"n. c #419542",
"m. c #489640",
"M. c #449A43",
"N. c #489E45",
"B. c #449D48",
"V. c #5B9B53",
"C. c #688B55",
"Z. c #609050",
"A. c #619D53",
"S. c #47A348",
"D. c #49A64B",
"F. c #55AA4B",
"G. c #4CAF50",
"H. c #4DB151",
"J. c #4DBA51",
"K. c #53B353",
"L. c #B52080",
"P. c #818181",
/* pixels */
"                                              9 9 9     9   G.9 S.9 e 9 9 9 9 O                                                 ",
"                                        9   X # 9 9 x.  y H.9 9 9 } e 9 %.9   o . .                                             ",
"                                          . F i u   u . = 9 9 9 9 9 1.9 / 9 H.o   G..                                           ",
"                                        . G.k G.# q F j h   9 t q <.W x 6.B.#.g } G.G..                                         ",
"                                    . . G.G.P G.9 9 h 9 9 9 D.9 9 t.v 6.6.6./ <.G.G.G.G.. .                                     ",
"                                  . G.G.G.G.L 9 9 h 9 9 Z 9 h 9 z 9 6.4.6.6.6.&.G.G.G.G.G.G..                                   ",
"                              . . G.G.B.G.S.H D.9 9 q x x x h h 9 e 9 6.6.6.8.1.  G.G.G.G.G.G.. .                               ",
"                            . G.G.G.G.G.H.D p H.& t x x x x x h z 9 J 7.5.1 V.M.S.G.G.G.G.G.G.G.G..                             ",
"                        . . G.G.G.G.G.G.M.F P Z 9 c k x x x G.x x x 0.( 6.S.A.l   G.S.G.G.G.G.G.G.G.. .                         ",
"                      . G.G.G.G.G.G.G.S.S.a.u 9 x h H.g x H.x x x x x  .r.9 5.$.G.S.G.G.G.G.G.G.G.G.G.G..                       ",
"                    . G.G.G.G.G.G.G.G.G.x   h x 9 h k x x x G.x x B k.B 9 9 9 9 F t G.S.G.G.G.G.G.G.G.G.G..                     ",
"                . . G.G.G.G.G.G.G.G.G.F G.K x x x 9 x x x x x a.x d.D 9 9 9 9 9 9 G.F G.G.G.G.G.G.G.G.G.G.G.. .                 ",
"              . G.G.G.G.G.G.G.G.G.G.G.G.F x x x x x x x x x x x x t S.y 9 9 9 9 9 9 D H.H.G.G.G.G.G.G.G.G.B.B.G..               ",
"          . . . G.G.G.G.G.G.G.G.G.G.G.D.q 9 x x x x x K x q q p.y t h h l 9 9 9 9   S.G.G.G.G.G.G.G.G.G.G.G.B.G.c.. .           ",
"        . . G.G.G.G.G.G.G.G.G.G.G.G.H.a.a.q 9 x x x x k k 9 9 9 9 9 9 9 9 9 t 9 G.S.H.H.G.G.G.G.G.G.G.G.G.G.G.B.B.B.G..         ",
"      . . B.G.G.G.G.G.G.G.G.G.G.G.G.F s.j.x x F x D.x a.k 9 k h 9 9 9 9 9 9 9 9 l F   S.G.G.G.G.G.G.G.G.G.G.G.B.G.c.c.. .       ",
"  . . G.G.B.B.G.G.G.G.G.G.G.G.G.G.G.G.S.Z x x x J x x x J.p q 9 9 9 9 9 q 9 9 9 9 l y G.G.G.G.G.G.G.G.G.G.G.G.G.B.B.G.c.B.. .   ",
". . I c.I B.B.G.G.G.G.G.G.G.G.G.G.G.S.S.x x x x x Z x x x x t 9 9 9 q 9 9 9 9 9 9 9 D G.G.G.G.G.G.G.G.G.G.G.G.G.G.B.B.B.c.B.. . ",
". I c.B.c.B.B.G.G.B.B.G.G.G.G.G.G.G.G.F D.x x x 1 S x x x y h 9 9 q q 9 v x.9 9 9 G.M.G.G.G.G.G.G.G.G.G.G.G.G.G.B.B.B.B.B.c.c.. ",
". c.c.B.c.B.G.B.B.B.G.G.G.G.G.G.G.G.Z H.G.9 x ~ R x x x x x h 9 9 9 k 9 q 9 9 9 9 F M.G.G.G.G.G.G.G.G.G.G.G.G.G.G.B.B.G.B.c.c.. ",
". I B.c.B.c.B.B.G.G.G.G.G.G.G.G.G.D.S.G.z h h   / x x x x S.9 9 9 h 9 0 x 9 h q q v G.S.G.G.G.G.G.G.G.G.G.G.G.G.B.c.c.B.c.I c.. ",
". I I c.B.c.G.G.G.G.G.G.G.G.G.G.G.G.s.9 9 9 s / k ` 4.x [ J | 9 9 9 J.x x x 9 k 9 z y G.D.G.G.G.G.G.G.G.G.G.G.G.B.B.c.B.B.c.c.. ",
". I B.I B.B.B.G.G.G.G.G.G.G.G.G.G.a.S.H.x 9 h e.O ] ] [ h -.D c 9 J.x x x x x z 9 9 q G.G.G.G.G.G.G.G.G.G.G.G.G.G.B.G.B.G.B.c.. ",
". c.c.c.G.c.B.G.G.G.G.G.G.G.G.G.H.D S.x x x q.J 6.6.6.4.6.[ k 9 9 q q x x x h 9 9 z G.a.G.D.G.G.G.G.G.G.G.G.G.G.G.B.G.c.B.G.c.. ",
". c.c.I B.B.G.B.B.G.G.G.G.G.G.G.H.S.x x x x x X.*.6.6.6.q.F 9 9 h 9 q 9 Z 9 q 9 x x x G.a.G.G.G.G.G.G.G.G.G.G.B.B.B.B.G.B.B.B.. ",
". I c.I B.B.B.B.G.G.G.G.G.G.G.G.G.D.F x x x 7.5.4.6.6.6.-.S.F 9 9 9 v K z.q 9 x x x x x a.G.D.G.G.G.G.G.G.G.G.G.c.G.B.B.G.B.c.. ",
". c.I I B.B.G.B.B.G.G.G.G.G.G.G.a.. . w Z G.@.  6.*.6.t q 9 D x.9 g l H.q 9 h J x x x H.G.G.G.H.G.G.G.G.G.G.G.B.B.B.B.B.B.B.B.. ",
". V I c.G.B.B.G.G.G.G.G.G.G.G.G.. . p a.h Z H.k A 4.e e :.5.D q v J.K.9 9 h 9 9 h x y x . w . n.G.G.G.G.G.G.G.B.G.G.B.G.B.c.B.. ",
". V c.c.c.c.G.G.G.G.G.G.G.G.G.G.. . . D.x x x / _ *.F.9 G.l g M.x.9 q j 9 9 9 h h k x x x . w . G.G.G.G.G.B.B.G.G.B.G.B.I B.c.. ",
". L G.B.B.c.B.B.B.G.G.G.G.G.G.G.G.S.D.x x x x x S ^ F 2.q.x.x.F 9 9 9 H.q 9 9 9 9 x x x x x w . G.G.G.G.B.G.G.c.B.c.B.c.I c.I . ",
". V I B.c.c.B.G.G.G.G.G.G.G.G.G.F G.D.a.x x x G.F J.F 9 a.9 F 9 9 q 9 9 9 x e 9 9 9 x x x G.G.G.G.G.B.B.B.c.c.B.c.B.B.L I c.c.. ",
". I B.B.c.c.G.B.B.B.G.G.G.G.G.G.G.a.Z g l x G.Z H.x.9 9 9 9 9 9 9 9 9 S.} 9 9 u 9 F S.x G.D.G.G.G.G.c.B.B.G.c.c.B.c.I c.B.G.c.. ",
". L G.c.c.B.B.c.B.G.G.G.G.G.G.G.G.G.H.Z x x x D a.9 9 9 9 9 9 9 9 9 F ..e 9 %.9 9 C a.a.G.G.G.G.G.G.G.B.B.B.B.B.B.I B.G.c.B.c.. ",
". I c.c.I B.B.G.B.B.B.B.G.G.G.G.G.H.S.x x x x x D y 9 9 9 9 9 9 9 9 f 9 %.9 9 9 l.H.F F G.a.a.G.G.G.G.B.G.B.B.B.G.c.G.G.B.G.I . ",
". L B.B.V c.c.c.c.c.B.G.G.G.G.G.G.G.D.a.x x x 9 9 l B 9 S.9 9 9 9 9 9 %.9 9 6.6 0.H.V.G.G.G.G.G.G.B.g.S.B.G.c.I I B.B.B.B.B.B.. ",
". L B.c.L B.c.B.B.B.G.G.B.G.H.H.G.J s.G.G.x 9 h 9 q k 9 9 9 9 9 9 0 q 9 9 6.6.6.S.4.G.G.G.G.B.G.B.G.B.B.B.c.c.c.c.B.B.B.B.B.c.. ",
". L B.I I B.G.c.B.B.c.c.G.G.B.D.G.G.G.s.x x x 9 h 9 9 t F q 9 q 9 9 q D 6.6.6.6.6.>.G.H.G.B.G.G.B.g.G.G.B.B.c.c.c.c.c.I B.B.B.. ",
". c.c.I c.B.I B.B.B.c.B.G.B.n.S.G.j.G.x x x x x x 9 9 9 D t 9 9 9 9 9 s 9 6.6.6.0 H.G.c.B.B.B.B.B.B.G.c.G.I B.B.I I B.I B.B.c.. ",
". I I c.B.c.G.B.B.B.c.c.B.B.G.s.G.G.D.D.x x x 9 9 q 9 9 q h 9 h 9 q 3 9 9 9 6.9 } H.H.B.B.B.B.B.B.B.B.c.L L I B.G.G.B.B.G.G.c.. ",
". I B.c.B.B.c.I I c.B.G.G.B.a.G.G.x G.s.a.x 9 q 9 9 9 9 9 k y 9 q 9 T a.%.%.%., 9 H.D H.c.B.B.B.c.B.f.I B.B.G.G.G.B.I B.B.c.B.. ",
". I B.c.I I c.G.B.c.G.G.B.G.G.G.x x x F Z z x 9 h 9 y 9 u y y x 9 z x q s 9 V.9 %.%.G.k G.B.B.c.c.I I B.c.B.B.B.B.B.I c.c.B.B.. ",
". L c.c.I c.B.B.B.B.B.G.B.G.G.x x x x x X.x x x h g 9 9 p.a.x x B 9 k x 9 S 9 9 9 9 6 F G.B.B.I B.B.B.G.B.c.I I c.G.c.B.B.c.G.. ",
". L B.c.B.c.I c.c.B.B.G.B.H.S.H.x x x B x x x x x x 9 q s.x x x x x x x x 9 j.9 6 6 B.B.B.B.c.I B.B.B.c.I L c.B.c.B.c.c.B.c.B.. ",
". L c.c.L c.I B.c.B.B.G.c.H c.B.M.Z l N.S.x x x 9 g 9 n.u t x x x x x x x x u $ 6 B.S.B.B.B.c.I B.B.B.L L c.B.B.c.I I c.c.I B.. ",
". I c.c.c.c.c.c.c.B.B.B.G.G.H.H H Z G g 9 G.x 9 q 9 x v 9 u 9 x q y x x x 9 6 % l M.  H.G.G.L G.G.G.B.I B.B.B.c.B.B.c.V V c.I . ",
". I c.I I I I c.B.B.G.G.B.c.c.c.G.y y h z h z 9 9 q 9 y G.h h x 9 9 9 x 9 F c S.  B.F D G.c.I G.G.c.I I I I L c.c.c.I c.c.B.c.. ",
". B.I V I B.c.c.B.B.c.I c.B.I B.y g 9 9 9 9 9 9 z d G.S.S.9 q q 9 z z k 9 x.q H.y G.M.G.B.B.c.B.I I I c.c.I c.c.I V L c.I B.I . ",
". L B.c.I V I B.B.I c.B.B.B.c.c.B.k 9 9 9 9 9 W q X.S.q 9 9 9 h 9 9 9 q 9 h k 9 F g S.G.B.B.L c.I c.B.c.c.I B.B.L B.c.m V I V . ",
". I I I I I c.G.B.c.I I I c.G.G.B 9 9 9 9 9 R Q 5 r.G.9 C.9 h 9 D.x 9 k 9 9 9 9 9 t G.B.c.B.I c.I c.c.I c.c.I I V c.L B.L I I . ",
". V L L c.B.B.B.B.c.c.G.B.B.B.c.g.M.9 9 9 9 e 4.t <.g 9 V.9 9 q x x x 9 g 9 9 9 9 k n.B.c.I c.G.c.c.c.c.I B.B.I c.c.c.L I B.L . ",
". V I c.I c.B.c.c.G.c.c.c.B.B.i y f.S.9 9 9 4.>.6 6.9 4.9 E q Z x x x x l 9 9 9 d.n.D.G.H c.B.M.B.B.c.L I I I I L I L L I V L . ",
". L c.L L V I c.I I B.c.I c.B.G.B y 9 9 9 9 0.j 6.6.6.%.4.e y k x x x k g 9 9 6 l b.Z G.G.N.M.c.I I c.I I I I I L L I V V V I . ",
". c.L V L V c.c.c.I c.c.B.B.B.B.B.c.y l 9 9 9 6.6.6.6.6.&.h x K.F x S.a.9 9 9 e 9 k   S.x B.H n.c.c.B.c.I V L L c.c.I L L c.V . ",
". L L L V L I I c.B.c.I c.c.B.B.B.B.B.9 9 9 R 6.6.6.6.*.4 k.F z a.x S.9 9 9 e r 6 :.6 x x x S.H D.B.f.B.I I I V I I I V L I V . ",
". V n V m B.B.B.c.I c.B.G.c.c.c.B.c.d.9 9 &.e 9 6.6.6.R N.Z 9 h q d.q k h 9 9 %.h.6 x x x x x H c.a c.c.L I L m I I V m L V V . ",
". n L V m m m V m L m L   I c.c.g.g f.  9 %.9 L.4.6.4 d Y h 9 x 9 k q h 9 9 %.h.9 4.9 x x Z D.l J B.B.g.H.f.c.  L m L c.V V m . ",
". n V I I   I V m n   c.A c.n.B.f.t I 0 9 9 9 3.#.;.2.4.O.^ x x x k z 9 9 9 9 9 ] 6.6.9 z   x G.G.9 B.0 B.  L V m L c.V L V m . ",
". L V   V m m n m     c.f.P P   z   > m 9 9 B.9 9 e 9 -.=.x x x x x z 9 9 9 9 6.6.6.] ] o.B P.9 x 9 h x.p * L L f.c.  f.V m b . ",
". V     V n V m     V I B n.x   8 J   9 9   9 9 9 9 9 9 { x x x x x h 9 9 9 s 9 6.6.6.9 y 9 z x x x 9 h 8 L h c.B V L n V : n . ",
". m V V m V L I I V y L V S a V Z 5 Y B.  9 9 9 9 9 9 x 9 9 x x x y 9 9 9 %.9 9 9 6.9 e 9 9 x x x x z H H 9 9 l B.V I   m : m . ",
". V V L L L L V n 5 m m 9 i t x x x k h 9 9 9 9 9 9 9 h 9 k z x l 9 9 9 9 9 9 %.%.-.9 9 9 F 9 x x x 6 x 6 9 x B.a   B V ; - : . ",
". V L V V L I . b . I 9 9 9 x x x x Z h 9 9 9 9 9 9 9 9 9 h h z D x z 9 9 S.9 9 9 e 9 %./ 9 9 9 x 9 9 9 9 x x x 6 p m 7 n n m . ",
". . . I I L L I f.  9 9 9 9 9 x x x 9 9 9 9 9 9 t 9 S.9 9 9 9 F H.x x 9 G.y y 9 h y 9 9 9 y h h h 9 S.D x x x x x h 9 % . . . . ",
". . + . B.c.B.. L X . 9 h 9 = 9 l 9 9 9 9 9 9 9 9 q y y 9 9 @ X G.g & 5 . g 6 q L . O 9 g l G.9 q & K s.H.x x x 9 9 . . . . . . "
};
