/* XPM */
static char *_c3b5b5b856648abf484e2251550086b5va2M4XlQeBeWEHV[] = {
/* columns rows colors chars-per-pixel */
"64 64 9 1 ",
"  c None",
". c black",
"X c #081105",
"o c #0C1907",
"O c #11240A",
"+ c #19330F",
"@ c #244915",
"# c #33691E",
"$ c #9A9A9A",
/* pixels */
"                         .     ..     .                         ",
"                       ...   ......   ...                       ",
"                      .##. .......... .##.                      ",
"                    ..###..............###..                    ",
"                  ..#####..............#####..                  ",
"                 .#######..............#######.                 ",
"               ..########..............########..               ",
"              .##########..............##########.              ",
"            ..###########..............###########..            ",
"           .@############..............#############.           ",
"         ..#@############..............##############..         ",
"        ..#@@############..............###############@.        ",
"      ..@@#@@############..............#################..      ",
"    ..@+@#+##############..............#################@+..    ",
"   ..@@+@@@@@############..............#################@+@..   ",
"$..++#+@@@+@@############..............###################Ooo.. ",
".O@O+#++@+@@@############..............###################@@O+..",
".o@O@OO@#@#@@############..............##################@@++O+.",
".oOOO+@+@@@@@############..............##################@@++O+.",
".oOOO@@@#@#@@############..............###################@++++.",
".o+oO@@@#@#@@############..............###################@@O@+.",
".OOO@@#+#@#@@############..............#################@#++Oo+.",
".o+O+@#+#@#@@############..............###################+++O+.",
".ooO+@#+@@@@@############..............##################@@++O+.",
".oO++@@@@@+@@############..............#################@#++O+@.",
".X++++@+@+@#@############..............#################@@++O++.",
".OOOO@@+@@@@#############..............################@#+++O++.",
".OO+++++@+@@#############..............##############@##@+#OoO+.",
".+OO++@@O++@#############..............################@#@+@O++.",
".+O+O+@+O+@@@@###########..............###############@#@@+@+oO.",
".O@@O++#O++@##@##########..............############@##@@@+++@X+.",
".O@+OO@@O@#####@@########..............############@#@@@@+@#+Xo.",
".++OO+++++######@########..............############@#@@#@@@+OX+.",
".+OOO@+O++@##@@#@##@#####..............############@@@@#+#@@XO@.",
".OoOO++@@@+@+#@@##@@#####..............#############@@@#+@@+XoO.",
".Oo+O+@@+@#@@+@@@@#@#####..............#########@#@@###@+@+oX@+.",
".OOOO+@#++#@@+@#@@@@#####..............#########@#@@@#@@@OOXO+@.",
".OOOoO+#++@@@@+@@##@#####..............#########@@@#@+@O+@oO+@O.",
".oO+O++@+OO@+@+++@@@@####..............#########@##@+@@oOOO+O+@.",
".o+O++O+@@#@@+@@+#@@@####..............########@#@##@@+++@@+OOO.",
".Xo@oo++@+@+@#@++#@#@####..............#######@#@@@@@@@+O+OOooO.",
".oOo+O+O@@@++##+#@@#@@###..............######@@@@@@@@@++++@OO+O.",
".Oooo@++Oo+@+@@+@@@@@#@##..............@@++++@@@@++@@@@@oOoO+oO.",
".OXXXOO+OoOOo@@+@@@#@#@##..............#@+@#@+#++@#@+@@+O@OoOOo.",
".Ooo+O++O+@+++o@+#@@@@###..............#+@###++++#@@+#@O+O+oO+O.",
".O+OOo++o++O+++++@@@##@##..............@+###+++@#@@O@@OO@OOoOOO.",
".OOOooOo++@+@@++#@@@#@@@#..............@@++++@+@@@O@+OO@@OOooOo.",
".+OooXO+O+@O@+O@#++@@#@@#..............@O+@@@++@@O@+@@oO++OOooO.",
".oXoXX+O++#oOOoO@++@#@@@@..............O+@++@#+++OO+Oo+++OO+oo+.",
".OoOooO@+@O@+O+O+@@@@@@@@..............O@@+O@++@@+@+O++O+O+OOOO.",
".oOOoo#@++@@O+OOO@@@@###@..............O++@O++++++++#@+O@O+oOoO.",
".ooXXO++Oo@+OOO+O++++@@@@..............+++OO#++@+##+++++O+ooOOO.",
".XoXXOO+Oo@O+O+@O++@@++@@..............+@O@@O+@@+@OO+@@OOoOO+Oo.",
".XoooOO+@+O++OO+OO+@@@@+@..............+o+OOOOOOOOOOO+OO+++ooOO.",
".XXoOoooOooOOo++oOO++@+@@..............++O++oOoooo++oO+OO+oOOOO.",
".oooOO+oO+oOOOO@oOOO++@+#..............oOOOo+O+@++OOo+ooooooooo.",
".O+OOXOoOoo+@oOOo+O+++@O@..............oO+O@ooo+OO+oOo@OOO+Ooo+.",
".OOOOO+OOoo++oOO+oO++@@+#..............+OO+OOO@OO+OOOO+OO+oOO@o.",
".ooXXOOOOooOOOO++oO++@+..................++O+OO++oO+O+OOOo+oOo+.",
".XoXXoOoOOoOOOoO+o............................++OOO+OooooOOoOoO.",
".oXXooOoOOO++......................................+o+OOoOO+Ooo.",
".oXooXoO@..............................................+OO++ooo.",
".OOO........................................................ooo.",
"................................................................"
};
