/* XPM */
static char *afbd8507f4414958b84b6a3ca94833735seYc2qChgDrZpsE[] = {
/* columns rows colors chars-per-pixel */
"64 64 9 1 ",
"  c None",
". c black",
"X c #292529",
"o c #005E30",
"O c #5BFA1D",
"+ c #76FF03",
"@ c #36F341",
"# c gray74",
"$ c white",
/* pixels */
"                                                                ",
"                                                                ",
"                                                                ",
"                                                                ",
"                                                                ",
"                                                                ",
"                                                                ",
"                                                                ",
"                                                                ",
"                                                                ",
"                                                                ",
"                                                                ",
"                                                                ",
"                                                                ",
"                                                                ",
"                                                                ",
"                                                                ",
"                                                                ",
"                                                                ",
"                           XXXXXXXXXX                           ",
"                        XXX$$$$$$$$$$XXX                        ",
"                        XXX$$$$$$$$$$XXX                        ",
"                        XXX$$$$$$$$$$XXX                        ",
"                      XX#$$$$$$$$$$$$$$$XX                      ",
"                    XX##$$$$$$$$$$$$$$$$XX                      ",
"                    XX$$$$$$$$$$$$$$$$$$$$X                     ",
"                    XX$$$$$$$$$$$$$$$$$$$$X                     ",
"                   X##$$$$$$$$$$$$$$$$$$$$X                     ",
"                   X##$$$$$$$$$$$$$$$$$$$$X                     ",
"                   X$$$$$$$$$$$$$$$$$$$$$$X                     ",
"                   X$$$$$$$$$$$$$$$$$$$$$$X                     ",
"                   X$$$$$$$$$$oo.$$$$$o....                     ",
"                   X##XX$$$$oo@@O$$$$$.@OO.                     ",
"                   X##XX$$$$oo@@O$$$$$.@OO.                     ",
"                    XX$$X$$$..OOO$$$$$$@++.                     ",
"                    XX$$X$$$..OOO$$$$$$@++.                     ",
"                    XX##X$$$..$$+$$$$X$$$$X                     ",
"                      XX#$$$$$$$$$$$$$$$##X                     ",
"                      XX#$$$$$$$$$$$$$$$##X                     ",
"                        X##$$$$$$$$$$$$$XX                      ",
"                         ..XXX$$$$$$$XXX                        ",
"                         ..XXX$$$$$$$XXX                        ",
"                         ..XXX$$$$$$$XXX                        ",
"                              XX....X                           ",
"                           XXX$$$$$$#X                          ",
"                         XX$$$$$$$$$$#XX                        ",
"                         XX$$$$$$$$$$#XX                        ",
"                        X$$#$$$$$$$$$#XX                        ",
"                        X$$#$$$$$$$$$#XX                        ",
"                        X$$X$$$$$$$$$###XX                      ",
"                        X$$X$$$$$$$$$###XX                      ",
"                      XX$##X$$$$$$$$$X##XX                      ",
"                      XX$  X$$$$$$$$$.##XX                      ",
"                      XX$ .X$$$$$$$$$.##XX                      ",
"                      XX$ .X$$$$$$$$$.##XX                      ",
"                        X..X$$$$$$$$$XXX                        ",
"                           X$$$$$....X                          ",
"                           X$$$$.    X                          ",
"                           X$$$$.   $X                          ",
"                           X$$$..$$$$X                          ",
"                           X$$$.#   $X                          ",
"                           X$$$.#   $X                          ",
"                           X$$$.#   $X                          ",
"                            .... ....                           "
};
