/* XPM */
static char *result[] = {
/* columns rows colors chars-per-pixel */
"64 64 12 1 ",
"  c black",
". c #8A0000",
"X c #991210",
"o c #A01C18",
"O c #9E2413",
"+ c #AB2B32",
"@ c #D81717",
"# c #C33D3E",
"$ c #ED3A3A",
"% c #DD5454",
"& c #CD7149",
"* c None",
/* pixels */
"****************************************************************",
"****************************************************************",
"****************************************************************",
"****************************************************************",
"****************************************************************",
"****************************************************************",
"****************************************************************",
"****************************************************************",
"****************************************************************",
"****************************************************************",
"****************************************************************",
"****************************************************************",
"****************************************************************",
"****************************************************************",
"*********************                       ********************",
"******************** +###############.%%%%%% *******************",
"******************** +###############.%%%%%% *******************",
"******************** +#............##.%%%%%% *******************",
"******************** +#.XXXXXXXXXX.##.%%%%%% *******************",
"******************** +#.X&oooooooX.##.%%..%% *******************",
"******************** +#.Xoo&ooo&oX.##.#.%%.% *******************",
"******************** +#.Xoooo&oooX.##.#.#%.% *******************",
"******************** +#.XooooooooX.##.#.##.% *******************",
"******************** +#.Xo&ooooooX.##.#.++.% *******************",
"******************** +#.X&oooooo&X.##.##..%% *******************",
"******************** +#.XXXXXXXXXX.##.%###%% *******************",
"******************** +#............##.%%%%%% *******************",
"******************** ++##############.%%%%%% *******************",
"******************** ++++++++++++++++.%%%%%% *******************",
"*********************                       ********************",
"************************** +...####%% @$ ***********************",
"************************** .O.%..##%. @$ ***********************",
"************************** .O.#%%...#%.. ***********************",
"************************** .O.+#%%%.+#.% ***********************",
"************************** .O.+#%%%.++.% ***********************",
"************************** .O.#%%.... #% ***********************",
"************************** .O.%..##%# #% ***********************",
"************************** +...####%% #% ***********************",
"************************** #+++####%% #% ***********************",
"************************** ########%% #% ***********************",
"************************** ########%%   ************************",
"************************** ######.#%% **************************",
"************************** ##++++.#%% **************************",
"************************** #%     #%% **************************",
"************************** #% *** #%% **************************",
"************************** +% *** #%% **************************",
"************************** ++ *** #%% **************************",
"**************************    ***     **************************",
"****************************************************************",
"****************************************************************",
"****************************************************************",
"****************************************************************",
"****************************************************************",
"****************************************************************",
"****************************************************************",
"****************************************************************",
"****************************************************************",
"****************************************************************",
"****************************************************************",
"****************************************************************",
"****************************************************************",
"****************************************************************",
"****************************************************************",
"****************************************************************"
};
