/* XPM */
static char *b1d45544f08045b984904c4a89cd6172i0kTP1yPDsY4qAWH[] = {
/* columns rows colors chars-per-pixel */
"64 64 4 1 ",
"  c None",
". c black",
"X c #71C700",
"o c #99FF00",
/* pixels */
"                                                                ",
"                                                                ",
"                                                                ",
"                                                                ",
"                                                                ",
"                                                                ",
"                                                                ",
"                                                                ",
"                                                                ",
"                                                                ",
"                                                                ",
"                                                                ",
"                                                                ",
"                                                                ",
"                                                                ",
"                                                                ",
"                                                                ",
"                            ........                            ",
"                            ........                            ",
"                            ........                            ",
"                          ..oooooooo..                          ",
"                          ..oooooooo..                          ",
"                          ..oooooooo..                          ",
"                      ....oooooooooooo..                        ",
"                      ....oooooooooooo..                        ",
"                      ....oooooooooooo..                        ",
"                    ..oooooooooooooooo..  ..                    ",
"                    ..oooooooooooooooo..  ..                    ",
"                    ..oooooooooooooooo..  ..                    ",
"                    ..oooooooooooooooooo..oo..                  ",
"                    ..oooooooooooooooooo..oo..                  ",
"                    ..oooooooooooooooooo..oo..                  ",
"                    ..oooooooooooooooooooooooo..                ",
"                    ..oooooooooooooooooooooooo..                ",
"                    ..oooooooooooooooooooooooo..                ",
"                  ..ooooooooooooooXXoooooooooo..                ",
"                  ..ooooooooooooooXXoooooooooo..                ",
"                  ..ooooooooooooooXXoooooooooo..                ",
"                ..ooooooooXXXXooooooXXoooooooo..                ",
"                ..ooooooooXXXXooooooXXoooooooo..                ",
"          ......ooooooooXXoooooooooooooooooooooo..    ..        ",
"          ......ooooooooXXoooooooooooooooooooooo..    ..        ",
"          ......ooooooooXXoooooooooooooooooooooo..    ..        ",
"        ..oooooooooooooooooooooooooooooooooooooo..  ..oo..      ",
"        ..oooooooooooooooooooooooooooooooooooooo..  ..oo..      ",
"        ..oooooooooooooooooooooooooooooooooooooo..  ..oo..      ",
"      ..oooooooooooooooooooooooooooooooooooooooooo..oooo..      ",
"      ..oooooooooooooooooooooooooooooooooooooooooo..oooo..      ",
"      ..oooooooooooooooooooooooooooooooooooooooooo..oooo..      ",
"      ..oooooooooooooooooooooooooooooooooooooooooooooooo..  ..  ",
"      ..oooooooooooooooooooooooooooooooooooooooooooooooo..  ..  ",
"      ..oooooooooooooooooooooooooooooooooooooooooooooooo..  ..  ",
"  ....oooooooooooooooooooooooooooooooooooooooooooooooooooo..oo..",
"  ....oooooooooooooooooooooooooooooooooooooooooooooooooooo..oo..",
"  ....oooooooooooooooooooooooooooooooooooooooooooooooooooo..oo..",
"..oooooooooooooooooooooooooooooooooooooooooooooooooooooooooooo..",
"..oooooooooooooooooooooooooooooooooooooooooooooooooooooooooooo..",
"..oooooooooooooooooooooooooooooooooooooooooooooooooooooooooooo..",
"..oooooooooooooooooooooooooooooooooooooooooooooooooooooooooooo..",
"..oooooooooooooooooooooooooooooooooooooooooooooooooooooooooooo..",
"..oooooooooooooooooooooooooooooooooooooooooooooooooooooooooooo..",
"  ..oooooooooooooooooooooooooooooooooooooooooooooooooooooooo..  ",
"  ..oooooooooooooooooooooooooooooooooooooooooooooooooooooooo..  ",
"  ..oooooooooooooooooooooooooooooooooooooooooooooooooooooooo..  "
};
